<svg width="158" height="158" viewBox="0 0 158 158" fill="none" xmlns="http://www.w3.org/2000/svg">
<g id="Mask Group">
<mask id="mask0_3_107" style="mask-type:alpha" maskUnits="userSpaceOnUse" x="0" y="0" width="158" height="158">
<rect id="Rectangle 4" x="39.8763" y="0.916351" width="124" height="124" transform="rotate(18.2941 39.8763 0.916351)" fill="#C4C4C4"/>
</mask>
<g mask="url(#mask0_3_107)">
<g id="Group 16">
<path id="path3137" d="M57.3701 111.043L106.232 127.197C106.558 127.305 106.896 127.416 107.203 127.556L107.214 127.522C115.193 130.159 123.833 125.815 126.472 117.833C129.111 109.852 124.763 101.213 116.784 98.5753C115.649 98.2003 114.428 97.9601 113.147 97.8598C112.73 97.8287 112.341 97.6229 112.082 97.2913C111.824 96.9595 111.713 96.5401 111.782 96.1264C113.572 85.2878 107.304 74.9252 96.8791 71.4787C85.2637 67.6386 72.6921 73.9632 68.852 85.5786C68.6627 86.1512 68.5171 86.7264 68.3776 87.3007C68.2728 87.735 67.9805 88.0984 67.5807 88.2927C67.1766 88.4916 66.7096 88.4945 66.3072 88.311C65.8986 88.1284 65.4828 87.9585 65.0494 87.8152C58.6463 85.6983 51.7143 89.1856 49.5974 95.5887C47.4797 101.994 50.967 108.926 57.3701 111.043L57.3701 111.043ZM65.9114 84.9479C65.9428 84.8455 65.9773 84.7413 66.0109 84.6395C70.3694 71.4561 84.6385 64.2798 97.8192 68.6374C109.154 72.3846 116.159 83.3353 114.945 95.0619C115.907 95.2137 116.835 95.4404 117.724 95.7341C127.271 98.8904 132.47 109.226 129.314 118.773C126.158 128.32 115.822 133.52 106.267 130.361L93.3512 126.091L56.4313 113.885C48.4602 111.25 44.1203 102.623 46.7564 94.6494C49.382 86.7078 57.9615 82.3671 65.9119 84.948" fill="white"/>
<path id="path3171" d="M36.898 99.0799C28.6937 94.0484 22.7951 86.0185 20.5517 76.6594C15.8843 57.1889 27.9481 37.554 47.4178 32.8863C66.8882 28.219 86.488 40.2181 91.1554 59.6883C91.8252 62.4823 88.2254 62.4616 87.7614 60.5257C83.5387 42.9104 65.806 32.0926 48.1906 36.3153C30.5752 40.538 19.787 58.1709 24.0102 75.7866C26.0358 84.2367 31.2989 91.5479 38.7063 96.0907C40.5566 97.2255 39.0853 100.421 36.8972 99.0794L36.898 99.0799Z" fill="white"/>
</g>
</g>
</g>
</svg>
